<?xml version="1.0" standalone="no"?>
<!DOCTYPE svg PUBLIC "-//W3C//DTD SVG 20010904//EN"
 "http://www.w3.org/TR/2001/REC-SVG-20010904/DTD/svg10.dtd">
<svg version="1.0" xmlns="http://www.w3.org/2000/svg"
 width="1200.000000pt" height="263.000000pt" viewBox="0 0 1200.000000 263.000000"
 preserveAspectRatio="xMidYMid meet">

<g transform="translate(0.000000,263.000000) scale(0.100000,-0.100000)"
fill="#000000" stroke="none">
<path d="M2390 2600 c-198 -42 -360 -136 -504 -292 -305 -328 -341 -824 -87
-1191 129 -186 308 -316 528 -384 80 -24 103 -27 258 -27 183 -1 244 10 388
70 264 110 480 372 554 672 23 93 23 331 0 426 -46 184 -125 324 -262 462
-109 110 -201 172 -335 223 -158 61 -371 78 -540 41z"/>
<path d="M4015 2409 c-17 -4 -41 -18 -53 -29 -50 -47 -51 -52 -52 -439 0 -214
4 -377 10 -400 5 -20 24 -50 40 -66 l31 -30 495 -3 494 -3 0 130 0 131 -162 2
-163 3 0 220 0 220 163 3 162 2 0 135 0 135 -467 -1 c-258 0 -482 -5 -498 -10z
m373 -481 l-3 -223 -102 -3 -103 -3 0 226 0 225 105 0 105 0 -2 -222z"/>
<path d="M5305 2409 c-43 -12 -82 -53 -94 -96 -7 -25 -11 -253 -11 -640 l0
-603 135 0 135 0 0 540 0 540 145 0 145 0 0 135 0 135 -212 -1 c-117 0 -226
-5 -243 -10z"/>
<path d="M6060 2296 l0 -126 330 0 330 0 0 -44 0 -45 -279 -3 c-264 -3 -281
-4 -307 -24 -68 -50 -69 -56 -69 -274 0 -218 1 -224 69 -274 27 -20 39 -21
449 -21 l422 0 0 125 0 125 -337 3 -338 2 0 40 0 40 328 2 327 3 3 243 c3 268
0 280 -60 324 l-33 23 -417 3 -418 3 0 -125z"/>
<path d="M7724 2406 c-230 -52 -384 -245 -384 -480 0 -44 6 -104 14 -132 48
-180 203 -322 387 -355 302 -54 583 189 573 494 -3 103 -6 114 -48 204 -39 82
-104 157 -177 204 -99 63 -251 90 -365 65z m204 -285 c153 -78 165 -293 21
-388 -53 -35 -140 -43 -205 -18 -120 46 -176 192 -118 308 57 113 189 156 302
98z"/>
<path d="M8500 1745 l0 -675 130 0 130 0 0 675 0 675 -130 0 -130 0 0 -675z"/>
<path d="M9450 2411 c-50 -11 -97 -37 -116 -66 -25 -38 -29 -106 -10 -143 23
-44 50 -59 157 -88 101 -27 129 -44 129 -81 0 -54 -76 -86 -152 -62 -40 13
-58 33 -72 82 -4 13 -16 17 -51 17 -40 0 -45 -2 -45 -22 1 -36 35 -103 65
-126 84 -66 276 -48 325 31 22 35 30 89 19 129 -16 63 -53 85 -217 128 -43 11
-82 40 -82 60 0 6 11 22 25 35 48 49 153 24 169 -40 6 -22 12 -25 53 -25 l46
0 -6 39 c-3 22 -13 51 -23 65 -37 50 -139 82 -214 67z"/>
<path d="M10588 2406 c-60 -16 -92 -38 -128 -87 -43 -60 -53 -101 -48 -194 4
-72 8 -89 37 -134 41 -64 100 -100 175 -108 157 -16 270 93 270 262 0 87 -16
137 -62 187 -64 71 -154 98 -244 74z m126 -91 c67 -32 100 -142 72 -238 -29
-98 -103 -137 -190 -98 -59 26 -88 83 -88 172 0 135 100 214 206 164z"/>
<path d="M9880 2145 l0 -255 190 0 190 0 0 45 0 45 -140 0 -140 0 0 65 0 65
125 0 125 0 0 45 0 45 -125 0 -126 0 3 56 3 56 133 -1 132 -2 0 46 0 45 -185
0 -185 0 0 -255z"/>
<path d="M11052 2202 c3 -196 3 -199 30 -239 33 -50 85 -76 165 -81 71 -5 121
9 165 46 52 44 58 72 58 282 l0 190 -44 0 -44 0 -4 -177 c-4 -226 -16 -252
-111 -253 -104 0 -117 29 -117 260 l0 170 -51 0 -51 0 4 -198z"/>
<path d="M11660 2145 l0 -255 170 0 170 0 0 45 0 45 -120 0 -120 0 0 210 0
210 -50 0 -50 0 0 -255z"/>
<path d="M9330 1325 l0 -255 138 0 c75 0 155 5 176 11 107 30 140 172 57 242
l-28 23 23 28 c29 33 33 118 8 154 -31 45 -63 52 -224 52 l-150 0 0 -255z
m280 155 c28 -28 25 -64 -6 -89 -22 -17 -41 -21 -105 -21 l-79 0 0 65 0 65 85
0 c72 0 88 -3 105 -20z m14 -201 c33 -26 36 -77 5 -105 -17 -15 -40 -20 -115
-22 l-94 -4 0 76 0 76 89 0 c74 0 92 -3 115 -21z"/>
<path d="M9922 1328 l3 -253 48 -3 47 -3 0 255 0 256 -50 0 -50 0 2 -252z"/>
<path d="M10230 1325 l0 -255 50 0 50 0 0 83 c1 77 2 84 31 115 16 18 33 31
37 28 4 -2 41 -54 82 -115 l74 -111 58 0 c32 0 58 3 58 8 0 4 -45 70 -100 147
-55 77 -100 144 -100 150 0 5 44 54 97 107 l98 98 -60 0 -60 0 -107 -107 -108
-108 0 108 0 107 -50 0 -50 0 0 -255z"/>
<path d="M10800 1325 l0 -255 190 0 190 0 0 45 0 45 -140 0 -140 0 0 65 0 65
125 0 125 0 0 45 0 45 -125 0 -125 0 0 55 0 55 135 0 135 0 0 45 0 45 -185 0
-185 0 0 -255z"/>
<path d="M5800 1225 l0 -135 740 0 740 0 0 135 0 135 -740 0 -740 0 0 -135z"/>
<path d="M6413 965 c-157 -43 -290 -166 -342 -317 -82 -237 28 -497 256 -606
73 -34 85 -37 188 -40 92 -3 120 -1 174 18 232 78 374 313 332 549 -50 281
-338 468 -608 396z m212 -274 c81 -37 134 -117 135 -204 0 -156 -166 -269
-306 -208 -64 29 -92 55 -120 116 -39 83 -28 164 35 236 64 75 169 100 256 60z"/>
</g>
</svg>
