<?xml version="1.0" standalone="no"?>
<!DOCTYPE svg PUBLIC "-//W3C//DTD SVG 20010904//EN"
 "http://www.w3.org/TR/2001/REC-SVG-20010904/DTD/svg10.dtd">
<svg version="1.0" xmlns="http://www.w3.org/2000/svg"
 width="900.000000pt" height="512.000000pt" viewBox="0 0 900.000000 512.000000"
 preserveAspectRatio="xMidYMid meet">

<g transform="translate(0.000000,512.000000) scale(0.100000,-0.100000)"
fill="#000000" stroke="none">
<path d="M4525 5008 c-139 -18 -268 -129 -311 -267 -19 -60 -19 -173 0 -235 8
-27 32 -74 52 -103 137 -199 421 -225 591 -55 154 154 156 398 4 550 -88 88
-206 127 -336 110z"/>
<path d="M3910 4169 c-58 -26 -96 -63 -125 -120 -31 -60 -343 -880 -355 -933
-20 -85 -6 -204 31 -278 11 -21 19 -39 19 -41 0 -3 -51 -7 -112 -9 -124 -5
-158 -16 -201 -68 -48 -56 -48 -144 0 -200 47 -57 73 -64 246 -68 l159 -4 13
-31 c13 -31 11 -34 -83 -173 l-97 -141 -80 28 c-503 175 -1059 -61 -1286 -545
-114 -244 -128 -560 -35 -792 45 -112 58 -139 101 -204 130 -200 326 -356 540
-428 219 -74 474 -72 689 5 315 113 556 371 650 693 17 58 29 84 38 81 51 -16
79 -8 359 104 162 65 304 124 317 132 71 44 82 155 21 212 l-22 20 289 283
c498 487 524 512 527 507 7 -8 37 -95 37 -106 0 -6 -28 -28 -62 -49 -130 -78
-234 -174 -320 -294 -338 -477 -217 -1144 267 -1465 191 -126 360 -177 590
-176 462 0 861 304 994 756 105 360 -6 767 -281 1030 -97 93 -167 142 -284
197 -139 65 -255 91 -414 92 -74 1 -155 -1 -179 -4 l-43 -5 -104 305 c-57 168
-104 306 -104 308 0 1 33 -14 73 -34 95 -48 123 -56 167 -44 86 23 127 128 80
204 -18 30 -53 52 -231 141 -115 58 -209 103 -209 101 0 -3 9 -20 19 -38 11
-18 25 -60 31 -93 26 -134 -36 -281 -149 -358 l-25 -17 17 -53 c9 -30 17 -57
17 -60 0 -4 -49 -7 -108 -7 -60 0 -157 -3 -215 -7 l-107 -6 0 -31 c0 -33 -19
-118 -44 -198 l-15 -48 125 7 124 6 -175 -174 -175 -174 -71 -240 -71 -240
-46 -1 c-26 -1 -68 -11 -94 -22 -27 -12 -48 -18 -48 -15 0 3 69 238 154 522
85 284 157 531 161 549 10 50 -12 125 -51 171 -29 34 -54 47 -162 89 -70 27
-154 55 -187 62 -33 7 -76 21 -96 30 -49 25 -106 91 -118 137 -6 21 -24 173
-41 338 -17 165 -33 320 -36 345 -3 29 38 -67 119 -278 124 -322 143 -359 199
-388 41 -21 715 -175 769 -176 90 -1 164 63 176 151 9 69 -29 146 -88 176 -16
9 -167 47 -335 85 -169 39 -308 71 -310 73 -3 3 -201 527 -199 527 1 0 48 -66
105 -146 l104 -145 34 88 c56 147 53 243 -13 329 -38 49 -85 73 -347 173 -209
80 -245 91 -300 91 -42 0 -78 -7 -108 -21z m292 -1761 c65 -24 118 -48 118
-54 0 -5 -56 -199 -125 -430 -69 -230 -128 -435 -131 -454 -10 -58 13 -120 61
-168 l44 -43 -42 -18 c-23 -10 -64 -26 -90 -36 -46 -17 -48 -17 -63 1 -8 10
-29 48 -47 84 -28 58 -32 75 -32 150 0 76 7 108 64 293 l63 208 -55 133 -55
133 52 7 c28 3 72 6 97 6 38 0 48 4 52 19 3 12 -1 22 -12 26 -9 4 -117 45
-241 92 -124 47 -228 89 -232 92 -4 3 97 5 225 4 l232 -2 117 -43z m-387 -543
c107 -258 106 -253 62 -182 -50 81 -129 178 -187 230 l-48 44 40 62 c23 34 42
60 43 59 2 -2 42 -97 90 -213z m-662 29 c40 -9 76 -20 80 -24 4 -4 -91 -152
-213 -330 -138 -202 -225 -339 -232 -365 -10 -36 -8 -47 8 -80 10 -21 32 -48
47 -59 27 -20 44 -21 461 -26 l433 -5 -13 -55 c-8 -30 -35 -98 -61 -150 -39
-81 -60 -109 -142 -191 -82 -82 -110 -103 -191 -142 -114 -56 -185 -76 -305
-84 -344 -22 -670 206 -775 542 -31 100 -38 276 -16 381 48 221 205 425 402
523 59 29 166 66 214 74 65 11 236 6 303 -9z m3032 1 c40 -8 115 -37 175 -66
91 -45 117 -64 196 -143 78 -79 97 -105 141 -196 69 -140 87 -227 80 -379 -6
-132 -28 -219 -84 -321 -101 -186 -261 -315 -473 -381 -107 -34 -291 -34 -405
-1 -136 39 -227 94 -335 202 -105 104 -159 192 -199 325 -96 312 44 682 324
857 l41 26 118 -357 c71 -212 128 -369 143 -389 82 -110 243 -61 243 75 0 27
-42 165 -120 394 -66 194 -120 357 -120 361 0 14 201 9 275 -7z m-2593 -285
c58 -76 110 -181 131 -262 l15 -58 -275 0 c-151 0 -273 4 -271 8 2 5 68 104
148 220 l144 212 29 -28 c16 -15 52 -56 79 -92z"/>
</g>
</svg>
