<?xml version="1.0" standalone="no"?>
<!DOCTYPE svg PUBLIC "-//W3C//DTD SVG 20010904//EN"
 "http://www.w3.org/TR/2001/REC-SVG-20010904/DTD/svg10.dtd">
<svg version="1.0" xmlns="http://www.w3.org/2000/svg"
 width="920.000000pt" height="557.000000pt" viewBox="0 0 920.000000 557.000000"
 preserveAspectRatio="xMidYMid meet">

<g transform="translate(0.000000,557.000000) scale(0.100000,-0.100000)"
fill="#000000" stroke="none">
<path d="M6380 5553 c-225 -10 -940 -98 -995 -122 -92 -42 -117 -119 -56 -173
l31 -28 203 -1 c111 -1 234 -4 273 -8 l71 -6 -87 -285 c-48 -157 -106 -349
-130 -427 l-43 -143 -1422 0 -1422 0 52 233 53 232 -17 110 -17 110 -439 0
c-423 0 -443 -1 -529 -23 -175 -44 -293 -125 -369 -253 -61 -104 -81 -184 -82
-324 0 -100 4 -131 23 -187 63 -182 213 -318 432 -392 84 -28 242 -58 251 -48
4 4 9 55 13 114 7 106 6 108 -16 112 -149 31 -190 43 -257 77 -96 48 -155 103
-189 177 -22 48 -27 71 -26 142 0 151 39 234 140 302 102 69 119 71 502 76
l344 3 -7 -33 c-59 -267 -304 -1331 -309 -1335 -3 -3 -45 6 -93 20 -233 71
-539 89 -790 47 -367 -62 -712 -243 -972 -509 -563 -578 -662 -1468 -239
-2159 247 -405 662 -698 1133 -802 78 -17 129 -20 369 -20 264 0 285 1 395 26
668 149 1194 688 1337 1368 35 170 44 416 19 587 -56 395 -226 740 -501 1016
-103 103 -256 221 -367 282 l-74 41 33 147 c32 138 39 162 47 152 6 -7 1048
-1170 1733 -1934 225 -250 216 -239 220 -291 7 -88 61 -171 135 -207 l33 -16
38 -198 c20 -109 37 -206 38 -215 0 -15 -9 -18 -55 -18 l-55 0 0 -85 0 -85
215 0 215 0 0 85 0 85 -70 0 c-38 0 -70 2 -70 5 0 2 -18 100 -41 217 -37 198
-39 214 -23 223 9 6 31 22 48 36 28 24 60 31 331 75 165 26 315 48 333 49 l34
0 34 -115 c43 -143 161 -383 248 -505 242 -336 579 -571 988 -686 l113 -32
303 -4 c283 -4 311 -3 405 17 649 139 1169 635 1336 1272 48 183 56 248 56
458 -1 216 -15 318 -67 495 -194 652 -733 1131 -1403 1245 -167 29 -414 29
-580 0 -201 -34 -337 -79 -518 -172 -54 -28 -102 -47 -106 -42 -9 10 -593 857
-635 920 l-27 42 139 456 c77 251 142 459 145 463 3 3 66 -9 139 -26 175 -42
233 -47 279 -28 87 36 142 185 108 288 -33 97 -125 139 -289 132z m-810 -1434
c0 -7 -22 -84 -50 -173 -85 -278 -363 -1191 -556 -1826 -58 -190 -108 -352
-111 -360 -5 -15 -72 304 -73 348 0 20 5 22 50 22 l50 0 0 85 0 85 -215 0
-215 0 0 -85 0 -85 75 0 c41 0 75 -4 75 -9 0 -5 16 -91 35 -192 19 -100 34
-184 32 -185 -2 -3 -34 32 -921 1026 -351 393 -728 815 -837 937 -110 122
-199 229 -199 239 0 9 6 42 14 73 8 31 17 68 20 84 l6 27 1410 0 c1054 0 1410
-3 1410 -11z m440 -479 c123 -179 247 -359 276 -400 l53 -76 -83 -71 c-45 -39
-117 -112 -159 -162 -288 -343 -427 -724 -427 -1170 0 -83 -2 -151 -5 -151 -2
0 -129 -20 -281 -45 -151 -25 -279 -45 -284 -45 -10 0 -50 66 -50 82 0 7 76
262 169 567 93 306 244 801 336 1101 91 300 177 583 191 629 14 46 29 79 33
75 5 -5 108 -155 231 -334z m-3940 -355 c108 -24 235 -68 233 -81 -1 -6 -19
-85 -39 -175 l-36 -164 -235 -418 c-202 -359 -239 -418 -262 -423 -95 -21
-147 -59 -185 -136 -82 -164 37 -358 219 -358 90 0 189 63 226 145 26 56 25
158 -1 210 -11 22 -20 42 -20 46 0 4 45 87 101 186 56 98 162 285 235 415
l134 237 35 148 c19 81 35 156 35 165 0 33 22 29 88 -14 231 -149 422 -365
543 -613 65 -135 99 -234 131 -380 29 -134 32 -433 5 -570 -59 -303 -195 -567
-402 -783 -125 -130 -258 -231 -402 -305 -516 -264 -1098 -228 -1578 96 -119
81 -312 274 -394 395 -389 574 -354 1321 87 1853 244 294 591 485 987 543 73
10 422 -3 495 -19z m5670 0 c798 -175 1321 -911 1215 -1708 -32 -243 -116
-462 -258 -672 -80 -118 -273 -311 -395 -393 -553 -377 -1267 -357 -1802 48
-175 133 -350 347 -446 547 -45 94 -119 302 -110 311 3 2 294 51 647 108 l643
103 42 -38 c100 -88 233 -82 331 15 60 59 77 108 71 196 -8 114 -89 198 -212
221 l-70 13 -186 269 c-102 149 -267 387 -365 529 -99 143 -181 263 -183 267
-5 12 198 106 298 137 85 27 198 53 285 66 72 10 422 -3 495 -19z m-1158 -473
c58 -86 224 -327 367 -535 144 -207 261 -384 261 -392 0 -23 -30 -32 -205 -59
-200 -32 -468 -75 -785 -126 -135 -22 -263 -43 -284 -46 l-39 -6 6 168 c9 254
50 420 156 639 33 66 88 161 122 210 59 84 267 305 286 305 4 -1 56 -71 115
-158z"/>
</g>
</svg>
